<?xml version="1.0" encoding="UTF-8"?>
<svg version="1.1" xmlns="http://www.w3.org/2000/svg" width="512" height="512">
<path d="M0 0 C2.48340456 -0.00271392 4.96680832 -0.0062771 7.45021057 -0.01062012 C13.46587134 -0.01875804 19.48146271 -0.01761555 25.49712069 -0.01179484 C30.3903671 -0.00725816 35.28359954 -0.00667406 40.17684746 -0.00884247 C40.87613896 -0.00914893 41.57543045 -0.0094554 42.2959126 -0.00977115 C43.71697463 -0.01041067 45.13803664 -0.0110591 46.55909865 -0.01171634 C59.8496194 -0.0174043 73.14011245 -0.01088568 86.43062865 -0.0001156 C97.80988607 0.00882048 109.18910268 0.00726441 120.56835938 -0.00195312 C133.81637999 -0.01267955 147.06437641 -0.01685718 160.31240076 -0.0107286 C161.72761468 -0.01009157 163.1428286 -0.00946282 164.55804253 -0.00884247 C165.25416745 -0.00853392 165.95029237 -0.00822537 166.66751199 -0.00790747 C171.54974583 -0.00618778 176.43196419 -0.00907984 181.31419563 -0.01380157 C187.89624574 -0.02002799 194.47823111 -0.01553393 201.06027794 -0.00401306 C203.46882627 -0.00137951 205.87738112 -0.00210914 208.28592682 -0.00653839 C234.93760466 -0.05101362 257.81838642 2.70156086 278.03100586 21.93457031 C283.98057418 28.02750173 288.6185453 34.34639813 292.55053711 41.88378906 C292.86780762 42.47361572 293.18507813 43.06344238 293.51196289 43.67114258 C299.40008485 55.56341623 300.90246214 68.53745314 300.83398438 81.62597656 C300.84106801 83.08332684 300.84982311 84.54066978 300.86009216 85.9980011 C300.88230404 89.90048291 300.87971664 93.80255396 300.87077069 97.70507431 C300.86561248 100.97832762 300.8729908 104.25150695 300.88024276 107.52475262 C300.89714657 115.24524785 300.89376652 122.96554489 300.87695312 130.68603516 C300.8599768 138.62984478 300.87596303 146.57310706 300.908176 154.51685715 C300.93489824 161.36824458 300.94214274 168.21946186 300.93366092 175.07089615 C300.92874727 179.14998824 300.93086461 183.22875005 300.95144844 187.30780029 C300.96985195 191.13641276 300.96379118 194.96423613 300.93924904 198.79280663 C300.93425898 200.19238076 300.93768395 201.59201563 300.95039749 202.99154091 C301.0166248 210.91102248 300.85934135 217.21474712 295.30053711 223.25878906 C290.13492634 227.47561418 285.71363222 227.88462209 279.10913086 227.64550781 C274.02481389 226.94544191 271.46379536 224.48667277 268.05053711 220.88378906 C264.91929767 216.1869299 264.05079115 211.76627132 264.04898071 206.18244934 C264.04359787 204.98687408 264.03821503 203.79129883 264.03266907 202.55949402 C264.03679306 201.26119156 264.04091705 199.9628891 264.04516602 198.62524414 C264.04241358 197.23335566 264.03873215 195.84146876 264.03419495 194.44958496 C264.02610157 191.45890491 264.02390985 188.46829955 264.02614212 185.47760963 C264.02898433 180.73995022 264.01458816 176.00243885 263.99716187 171.26481628 C263.95022549 157.79497505 263.92620794 144.32514402 263.91967773 130.85522461 C263.9159163 123.41055418 263.89779961 115.96605159 263.86458337 108.52145308 C263.84446484 103.82108259 263.84195208 99.12114783 263.85286355 94.42075217 C263.85548795 91.48327009 263.84138284 88.54603679 263.82278252 85.60861969 C263.81500342 83.61766287 263.82683145 81.62665888 263.83946228 79.63572693 C263.73478209 68.14749422 260.83318286 58.13355433 253.30053711 49.25878906 C243.12353698 39.39432636 231.76738927 37.10898061 218.06163025 37.11161804 C217.03253731 37.10794135 216.00344437 37.10426467 214.94316679 37.10047656 C211.49579752 37.08946606 208.04845842 37.08560034 204.60107422 37.08178711 C202.12870183 37.07552047 199.65633038 37.06887349 197.18395996 37.06187439 C189.76623856 37.04267011 182.34852517 37.03204978 174.93078622 37.0231466 C171.43233216 37.01875664 167.93387959 37.0133917 164.43542671 37.00815773 C152.7969529 36.99115045 141.15848001 36.97665777 129.51999569 36.96940899 C126.50291378 36.96749929 123.48583188 36.96557893 120.46875 36.96362305 C119.34401626 36.96289744 119.34401626 36.96289744 118.19656063 36.96215717 C106.05830722 36.95386228 93.92015252 36.9285323 81.78194218 36.89604237 C69.30296055 36.86291422 56.824029 36.84495507 44.34500319 36.84176475 C37.34534137 36.83960504 30.34582355 36.83093578 23.34620476 36.80530357 C16.75766363 36.78123145 10.16933417 36.77780688 3.58074188 36.78806496 C1.16896516 36.78855939 -1.24282447 36.78226638 -3.654562 36.76850891 C-20.36196673 36.67857239 -35.46411948 36.79475069 -48.40649414 48.84863281 C-59.31972805 60.59071993 -60.01166874 75.32964134 -59.95343018 90.61730957 C-59.95811015 92.53744015 -59.95811015 92.53744015 -59.96288466 94.49636126 C-59.97115357 98.01062092 -59.96714385 101.52477051 -59.96091223 105.03903031 C-59.956356 108.84413755 -59.9633871 112.64922686 -59.96887207 116.45433044 C-59.9777341 123.89320397 -59.97585834 131.33203698 -59.97004679 138.77091205 C-59.9655177 144.82026492 -59.96492278 150.86960649 -59.96709442 156.91896057 C-59.96740089 157.78213387 -59.96770735 158.64530717 -59.96802311 159.53463724 C-59.9686626 161.2885238 -59.96931103 163.04241035 -59.96996829 164.79629689 C-59.97566224 181.21665995 -59.9691284 197.63700061 -59.95836756 214.05735999 C-59.9494329 228.12630458 -59.9509852 242.19521616 -59.96020508 256.26416016 C-59.97092426 272.6284583 -59.975113 288.99273686 -59.96898055 305.35703802 C-59.9683435 307.1042312 -59.96771476 308.85142437 -59.96709442 310.59861755 C-59.96678587 311.45811997 -59.96647732 312.31762239 -59.96615942 313.20317033 C-59.96443742 319.24055932 -59.96733688 325.27793582 -59.97205353 331.31532288 C-59.9776807 338.67959352 -59.97610745 346.04382157 -59.96549204 353.40808737 C-59.96025996 357.16060582 -59.95813623 360.9130534 -59.96479034 364.66557121 C-59.9719124 368.74386452 -59.96337027 372.82198114 -59.95343018 376.90026855 C-59.96012234 378.65696704 -59.96012234 378.65696704 -59.9669497 380.44915438 C-59.89732918 395.24187066 -58.13211412 408.29286064 -47.70336914 419.44238281 C-37.51108106 428.68100651 -25.50269251 430.71740756 -12.16308594 430.64355469 C-10.36096901 430.65161385 -10.36096901 430.65161385 -8.52244568 430.65983582 C-5.26237109 430.67208616 -2.00259401 430.67156962 1.25748849 430.66610527 C4.6846638 430.66430641 8.11173415 430.68178616 11.53886414 430.69787598 C20.9693923 430.7387445 30.39991123 430.75027673 39.830513 430.76140594 C48.4948454 430.77192876 57.15904366 430.78873134 65.82329339 430.82950163 C69.22828567 430.84481331 72.63305322 430.85377827 76.03808022 430.84809875 C79.82925968 430.84358373 83.61999819 430.85694474 87.41113281 430.87402344 C88.53177124 430.86787521 89.65240967 430.86172699 90.80700684 430.85539246 C97.34795528 430.90719597 102.15013713 431.35275973 107.16381836 435.97753906 C107.64206055 436.56535156 108.12030273 437.15316406 108.61303711 437.75878906 C109.10416992 438.34660156 109.59530273 438.93441406 110.10131836 439.54003906 C113.14708129 443.9053019 112.96408965 449.16903948 112.30053711 454.25878906 C110.07701449 459.88468465 106.65517918 463.4105752 101.30053711 466.25878906 C98.24251053 467.22238875 95.46210073 467.3884373 92.26435852 467.39923096 C90.74055069 467.40779617 90.74055069 467.40779617 89.18595886 467.41653442 C87.52238091 467.41821121 87.52238091 467.41821121 85.82519531 467.41992188 C84.652229 467.42488678 83.4792627 467.42985168 82.27075195 467.43496704 C79.05300195 467.44706903 75.83528827 467.45453403 72.61751962 467.4589777 C70.59987567 467.46191616 68.5822373 467.46602276 66.56459618 467.47048187 C60.23156045 467.48416166 53.89853763 467.49382171 47.56548816 467.49768376 C40.29496073 467.50214325 33.02462329 467.51959 25.75415355 467.54868436 C20.1122365 467.57046329 14.47037221 467.58039685 8.82841367 467.58172488 C5.47042481 467.58276293 2.1127548 467.58994678 -1.24521446 467.60654449 C-29.89745675 467.73795734 -53.15337089 464.94212835 -74.82446289 444.63378906 C-89.66730427 429.22460716 -96.01805209 410.59508331 -95.96688843 389.40768433 C-95.97062998 388.01229741 -95.9752335 386.61691258 -95.98061907 385.22153103 C-95.99280239 381.40566658 -95.99259414 377.5898901 -95.99023032 373.77401066 C-95.98982096 369.65113042 -96.00087271 365.52827795 -96.01034546 361.40541077 C-96.02693137 353.33432866 -96.03245394 345.26327578 -96.03357022 337.19217806 C-96.03452194 330.62787162 -96.03863846 324.06357479 -96.04497147 317.49927139 C-96.06257819 298.86900267 -96.07181136 280.23875695 -96.07031052 261.60847984 C-96.07023061 260.60491782 -96.07015069 259.6013558 -96.07006836 258.56738281 C-96.0699866 257.56258858 -96.06990484 256.55779434 -96.0698206 255.52255179 C-96.06900811 239.24727076 -96.0881378 222.97208236 -96.11634509 206.69682811 C-96.14511092 189.96663057 -96.15888332 173.23647815 -96.15715754 156.50625527 C-96.15649486 147.12115384 -96.16193337 137.73614949 -96.18351364 128.3510704 C-96.20177428 120.35871444 -96.20603291 112.36649957 -96.19249479 104.37413172 C-96.18598937 100.3013262 -96.18575937 96.22879097 -96.20320129 92.15601158 C-96.21904577 88.41756712 -96.21595417 84.6796047 -96.19863303 80.94117118 C-96.19416047 78.96934469 -96.20913074 76.99750254 -96.22511232 75.02573574 C-96.08146673 56.20344596 -89.32474705 39.25691966 -76.69946289 25.25878906 C-76.1077832 24.57429688 -75.51610352 23.88980469 -74.90649414 23.18457031 C-54.88580837 1.45636336 -27.64005712 -0.0508761 0 0 Z " fill="#000000" transform="translate(124.699462890625,4.7412109375)"/>
<path d="M0 0 C0.66773438 0.59425781 1.33546875 1.18851562 2.0234375 1.80078125 C24.77210905 23.32123814 36.63767719 55.22511706 38.203125 85.9921875 C38.40694249 102.87506967 35.9562345 119.1711574 30 135 C29.75266113 135.6595166 29.50532227 136.3190332 29.25048828 136.99853516 C17.01350099 168.79319329 -7.80617999 192.37692122 -38.58984375 206.17578125 C-68.95759204 219.15777447 -104.37043708 218.51777032 -134.96875 206.69140625 C-150.69807152 200.27011531 -163.65358267 190.60996437 -176 179 C-176.88558594 178.21109375 -176.88558594 178.21109375 -177.7890625 177.40625 C-199.08825489 157.6212182 -211.21522864 126.79490675 -212.3125 98.1953125 C-212.65498932 83.67013012 -211.88053353 70.02196099 -208 56 C-207.82339844 55.33403809 -207.64679688 54.66807617 -207.46484375 53.98193359 C-199.00960278 22.89326517 -176.54126503 -3.11587263 -149.05273438 -19.13476562 C-135.61472342 -26.73838388 -120.35677532 -32.12007679 -105 -34 C-103.70642578 -34.16435547 -103.70642578 -34.16435547 -102.38671875 -34.33203125 C-63.55294165 -38.54698535 -28.81606812 -25.67037875 0 0 Z M-160.52197266 29.27636719 C-177.27186285 48.80960551 -183.59316917 73.99307477 -182.22314453 99.25048828 C-180.09459064 125.477812 -166.26472408 147.73711643 -146.71875 164.83984375 C-125.57453702 181.6397716 -101.3645646 186.61846143 -75 185 C-69.14591941 184.27785185 -63.61355085 182.77547589 -58 181 C-56.88882813 180.66097656 -55.77765625 180.32195312 -54.6328125 179.97265625 C-32.09442649 172.23025225 -13.15438007 155.0389896 -2.5625 133.8125 C-1.32983724 131.22720507 -0.15343368 128.62144019 1 126 C1.63035156 124.61941406 1.63035156 124.61941406 2.2734375 123.2109375 C11.33963617 101.19302645 9.55826604 75.27445093 0.58984375 53.609375 C-10.21269529 29.08469178 -29.08155459 10.8155641 -54 1 C-93.17020597 -12.82222976 -132.90286264 -1.10896259 -160.52197266 29.27636719 Z " fill="#000000" transform="translate(448,282)"/>
<path d="M0 0 C0.79083676 -0.00453111 1.58167351 -0.00906223 2.39647502 -0.01373065 C5.0433222 -0.02637894 7.68996373 -0.024754 10.33683777 -0.02310181 C12.23590357 -0.02908681 14.13496693 -0.03589229 16.0340271 -0.04345703 C21.1911415 -0.0611276 26.34818953 -0.06581287 31.50533128 -0.0670886 C34.72814706 -0.06851022 37.95094596 -0.07278002 41.17375755 -0.07808304 C52.41953477 -0.09658715 63.66526458 -0.10475321 74.91105652 -0.10317993 C85.38967052 -0.10197859 95.86807853 -0.12307866 106.34664041 -0.15466726 C115.34637699 -0.18082987 124.34604629 -0.19154722 133.34582061 -0.19026911 C138.71946973 -0.18975945 144.09293581 -0.1954448 149.46654701 -0.21662521 C154.52191153 -0.23600711 159.57691839 -0.23613228 164.63229561 -0.22159195 C166.4849983 -0.21950267 168.33772337 -0.22421185 170.19038773 -0.23631287 C172.72540643 -0.25179492 175.25919641 -0.24243833 177.79418945 -0.22705078 C178.52232009 -0.23733791 179.25045073 -0.24762503 180.00064594 -0.25822389 C185.96906283 -0.17850682 191.25291875 1.58857879 195.65649253 5.75011313 C199.87966179 10.62511248 200.39370495 14.56384844 200.29460144 20.77133179 C199.85094402 26.12033352 197.44988788 29.12588667 193.58757019 32.57992554 C189.08704977 36.34022878 185.05217288 36.41600167 179.37768555 36.41459656 C178.58447409 36.41827325 177.79126263 36.42194993 176.97401446 36.42573804 C174.30718864 36.43678046 171.64040178 36.44061967 168.97355652 36.44442749 C167.06493506 36.45069175 165.15631482 36.45733851 163.24769592 36.46434021 C158.0553575 36.48175393 152.86302828 36.49230313 147.67066789 36.50054574 C144.42676207 36.50569542 141.18285911 36.51177119 137.93895531 36.51805687 C127.78989643 36.53711053 117.64084484 36.55134095 107.49177152 36.55966884 C95.77588129 36.569441 84.06018001 36.59575933 72.34435636 36.63616973 C63.28946707 36.66633026 54.23463194 36.68113768 45.1796934 36.68444985 C39.77135031 36.6868005 34.36320903 36.69576301 28.95491982 36.72091103 C23.86512581 36.74419538 18.77566644 36.74842342 13.68583298 36.73814964 C11.82022552 36.73765425 9.95460157 36.74397557 8.08904457 36.75770569 C5.53642153 36.77543755 2.98499775 36.76831255 0.43237305 36.75517273 C-0.30101278 36.76614198 -1.03439861 36.77711122 -1.79000825 36.78841287 C-7.21465435 36.72127658 -11.35728252 35.22375189 -15.91242981 32.26742554 C-20.04176523 28.0294234 -21.71095271 24.31577603 -22.28742981 18.45492554 C-22.11964939 12.53786937 -19.6629436 7.97305436 -15.47492981 3.89242554 C-10.33187166 0.63097403 -6.01982878 -0.02537297 0 0 Z " fill="#000000" transform="translate(131.9124298095703,202.73257446289063)"/>
<path d="M0 0 C0.79633144 -0.00382555 1.59266288 -0.00765109 2.41312557 -0.01159257 C5.07846802 -0.021902 7.74359422 -0.01793434 10.40895081 -0.01396179 C12.32111307 -0.01830939 14.23327359 -0.0234927 16.14543152 -0.02944946 C21.33754109 -0.04284519 26.5295779 -0.04341751 31.72170138 -0.04088616 C36.05580516 -0.0398169 40.38989418 -0.04469866 44.72399479 -0.04949158 C54.94825566 -0.06058864 65.17247979 -0.06102298 75.39674377 -0.05497742 C85.94580017 -0.04893575 96.49472325 -0.06125311 107.0437569 -0.08254749 C116.10036076 -0.10015728 125.15692217 -0.10616585 134.21354252 -0.10290974 C139.62286158 -0.10109584 145.03208552 -0.10374386 150.44138908 -0.11762428 C155.52789228 -0.13018793 160.61418745 -0.12827233 165.70068741 -0.11521339 C167.56712603 -0.11284492 169.43357923 -0.11559197 171.30000114 -0.12383652 C173.84868025 -0.13428275 176.39665862 -0.12622058 178.9453125 -0.11352539 C180.05208341 -0.12458682 180.05208341 -0.12458682 181.18121332 -0.13587171 C186.71645204 -0.07790268 190.80218508 1.20001776 194.89942932 4.97944641 C195.37767151 5.56725891 195.8559137 6.15507141 196.34864807 6.76069641 C196.83978088 7.34850891 197.3309137 7.93632141 197.83692932 8.54194641 C200.90129753 12.93387479 200.46823487 18.13966768 200.03614807 23.26069641 C198.06203706 29.07335662 194.28137536 32.60340354 188.83536243 35.38460732 C185.24281732 36.50899051 181.84900103 36.54382364 178.12371826 36.52812195 C177.33288151 36.53265306 176.54204475 36.53718417 175.72724324 36.54185259 C173.08039606 36.55450089 170.43375453 36.55287595 167.78688049 36.55122375 C165.88781469 36.55720876 163.98875133 36.56401424 162.08969116 36.57157898 C156.93257676 36.58924954 151.77552873 36.59393482 146.61838698 36.59521055 C143.3955712 36.59663217 140.1727723 36.60090197 136.94996071 36.60620499 C125.70418349 36.6247091 114.45845368 36.63287516 103.21266174 36.63130188 C92.73404774 36.63010053 82.25563973 36.6512006 71.77707785 36.68278921 C62.77734127 36.70895181 53.77767197 36.71966917 44.77789766 36.71839106 C39.40424853 36.7178814 34.03078246 36.72356675 28.65717125 36.74474716 C23.60180673 36.76412906 18.54679987 36.76425423 13.49142265 36.7497139 C11.63871996 36.74762462 9.78599489 36.7523338 7.93333054 36.76443481 C5.39831184 36.77991687 2.86452185 36.77056028 0.32952881 36.75517273 C-0.39860183 36.76545986 -1.12673247 36.77574698 -1.87692767 36.78634584 C-8.42937642 36.69882815 -13.74259964 34.5404027 -18.33885193 29.82319641 C-21.54659259 24.76483614 -22.86294793 20.2879696 -21.96385193 14.26069641 C-19.88163653 8.05907109 -16.71599237 4.14381351 -10.80143642 1.17542744 C-7.1759217 0.0066972 -3.76712041 -0.01923739 0 0 Z " fill="#000000" transform="translate(131.96385192871094,109.73930358886719)"/>
<path d="M0 0 C0.83144531 -0.03738281 1.66289062 -0.07476562 2.51953125 -0.11328125 C8.41418385 0.82744662 12.61601384 5.49894052 16.6640625 9.59375 C17.15659515 10.08911255 17.64912781 10.5844751 18.15658569 11.09484863 C19.71336918 12.66271649 21.26302631 14.23741118 22.8125 15.8125 C23.8589056 16.86895472 24.90577687 17.92494843 25.953125 18.98046875 C27.87742479 20.92100978 29.79838867 22.86464293 31.71728516 24.81054688 C33.86561199 26.98647625 36.022498 29.15318042 38.1875 31.3125 C41.68759675 27.90815058 45.0936892 24.47798955 48.25 20.75 C51.78764337 16.66438453 55.52584444 12.79085484 59.3125 8.9375 C59.91070557 8.3180249 60.50891113 7.6985498 61.12524414 7.06030273 C65.53722448 2.61400223 69.16100612 0.05272271 75.625 -0.0625 C80.18206483 0.058618 82.71738251 1.24588454 86.1875 4.3125 C90.11696467 8.65559253 90.64660027 12.1223214 90.71875 17.75 C89.23504512 24.90669412 82.8947899 29.81088475 77.875 34.6875 C68.33272784 43.89627213 68.33272784 43.89627213 60.1875 54.3125 C60.75670166 54.87646484 61.32590332 55.44042969 61.91235352 56.02148438 C64.52761844 58.61576769 67.13882619 61.21409923 69.75 63.8125 C70.64525391 64.699375 71.54050781 65.58625 72.46289062 66.5 C90.26471674 84.23661796 90.26471674 84.23661796 90.5625 92.3125 C90.42113613 96.45507588 89.94918598 99.07466127 87.1875 102.3125 C83.49131694 105.55792903 80.98612024 107.46447887 76.0625 107.6875 C75.33804688 107.73648438 74.61359375 107.78546875 73.8671875 107.8359375 C66.14566223 106.32765122 60.83842099 100.2517957 55.8125 94.625 C54.51304842 93.20321068 53.21226376 91.78263861 51.91015625 90.36328125 C51.28125488 89.67443848 50.65235352 88.9855957 50.00439453 88.27587891 C46.19540876 84.15979942 42.19466445 80.23480685 38.1875 76.3125 C31.10692564 82.18787021 24.53690426 88.4941403 18.5625 95.5 C13.21807162 101.69805236 8.22212086 106.75309768 -0.1875 107.6875 C-5.98833406 107.08741372 -9.31782861 104.92214611 -13.25 100.6875 C-15.37359176 96.10054179 -15.59509841 92.28526074 -14.8125 87.3125 C-12.48847915 82.47078989 -8.68589552 79.07690943 -4.875 75.37109375 C-2.98031817 73.48000033 -1.23368487 71.53791322 0.5 69.5 C5.09454568 64.14682003 10.16201105 59.2561998 15.1875 54.3125 C10.28646553 47.07316581 4.17383217 41.12919101 -2.0625 35.0625 C-4.05272501 33.12565268 -6.03606914 31.18211854 -8.015625 29.234375 C-8.88864258 28.38456055 -9.76166016 27.53474609 -10.66113281 26.65917969 C-14.80217185 22.1421952 -15.19783326 18.68162996 -15.06640625 12.71484375 C-14.53377682 7.67534994 -11.50483486 4.543293 -7.8125 1.3125 C-4.97761195 0.36753732 -2.95691383 0.0863001 0 0 Z " fill="#000000" transform="translate(328.8125,318.6875)"/>
<path d="M0 0 C0.73090347 -0.00511093 1.46180695 -0.01022186 2.21485901 -0.01548767 C4.61606171 -0.0293172 7.01697525 -0.02843203 9.41821289 -0.02612305 C11.09680792 -0.03001348 12.77540196 -0.03434886 14.45399475 -0.03910828 C17.96675818 -0.04655609 21.47942107 -0.04628956 24.9921875 -0.04101562 C29.48222322 -0.03522124 33.97184639 -0.05215808 38.46181393 -0.0753603 C41.92690923 -0.09012815 45.39190585 -0.09096522 48.85702705 -0.08785057 C50.51194641 -0.08836219 52.16687152 -0.09356998 53.82176018 -0.10366249 C56.14055693 -0.11606995 58.45855867 -0.10921025 60.77734375 -0.09765625 C62.09383408 -0.09828568 63.4103244 -0.0989151 64.76670837 -0.0995636 C71.4099922 0.57477608 76.1630613 3.03094862 80.45336914 8.2746582 C83.86317322 14.07132514 83.97712674 18.8833416 82.45336914 25.2746582 C79.85899095 30.77473996 76.10056152 34.14676264 70.45336914 36.2746582 C64.42875214 37.00504486 58.4437237 36.93059112 52.38305664 36.8684082 C50.61524538 36.86669513 48.84743157 36.86676479 47.07962036 36.86853027 C43.38608286 36.86688183 39.69315584 36.84826866 35.99975586 36.81665039 C31.27420845 36.77691594 26.54945719 36.7726149 21.82377434 36.78011322 C18.17767083 36.78318727 14.53174511 36.77104789 10.88568497 36.75398254 C9.14343506 36.74697122 7.40116502 36.74382574 5.65890121 36.74467468 C3.22267176 36.74287004 0.78738416 36.72143425 -1.64868164 36.69458008 C-2.36260071 36.69751068 -3.07651978 36.70044128 -3.81207275 36.70346069 C-8.44687088 36.62492605 -11.60750869 35.70650879 -15.54663086 33.2746582 C-20.09538426 28.51914328 -22.27950215 24.99046676 -22.92163086 18.4621582 C-22.75434814 12.56265437 -20.29134922 8.01937656 -16.17163086 3.8996582 C-10.89345077 0.63221339 -6.14238757 0.02150984 0 0 Z " fill="#000000" transform="translate(132.546630859375,295.725341796875)"/>
</svg>
